<mxfile host="app.diagrams.net" agent="Mozilla/5.0 (Windows NT 10.0; Win64; x64) AppleWebKit/537.36 (KHTML, like Gecko) Chrome/140.0.0.0 Safari/537.36" version="28.2.3" pages="2">
  <diagram name="Trang-1" id="KSNoI0Fxomjgd8TptYqG">
    <mxGraphModel dx="786" dy="459" grid="1" gridSize="10" guides="1" tooltips="1" connect="1" arrows="1" fold="1" page="1" pageScale="1" pageWidth="827" pageHeight="1169" math="0" shadow="0">
      <root>
        <mxCell id="0" />
        <mxCell id="1" parent="0" />
        <mxCell id="Dsfpr2VGSD5I1YTHFGMH-3" value="" style="edgeStyle=orthogonalEdgeStyle;rounded=0;orthogonalLoop=1;jettySize=auto;html=1;" edge="1" parent="1" source="Dsfpr2VGSD5I1YTHFGMH-1" target="Dsfpr2VGSD5I1YTHFGMH-2">
          <mxGeometry relative="1" as="geometry" />
        </mxCell>
        <mxCell id="Dsfpr2VGSD5I1YTHFGMH-1" value="Bắt đầu" style="ellipse;whiteSpace=wrap;html=1;" vertex="1" parent="1">
          <mxGeometry x="320" y="20" width="120" height="80" as="geometry" />
        </mxCell>
        <mxCell id="Dsfpr2VGSD5I1YTHFGMH-5" value="" style="edgeStyle=orthogonalEdgeStyle;rounded=0;orthogonalLoop=1;jettySize=auto;html=1;" edge="1" parent="1" source="Dsfpr2VGSD5I1YTHFGMH-2" target="Dsfpr2VGSD5I1YTHFGMH-4">
          <mxGeometry relative="1" as="geometry" />
        </mxCell>
        <mxCell id="Dsfpr2VGSD5I1YTHFGMH-2" value="Input A,B,C" style="shape=parallelogram;perimeter=parallelogramPerimeter;whiteSpace=wrap;html=1;fixedSize=1;" vertex="1" parent="1">
          <mxGeometry x="320" y="190" width="120" height="60" as="geometry" />
        </mxCell>
        <mxCell id="Dsfpr2VGSD5I1YTHFGMH-7" value="" style="edgeStyle=orthogonalEdgeStyle;rounded=0;orthogonalLoop=1;jettySize=auto;html=1;" edge="1" parent="1" source="Dsfpr2VGSD5I1YTHFGMH-4" target="Dsfpr2VGSD5I1YTHFGMH-6">
          <mxGeometry relative="1" as="geometry" />
        </mxCell>
        <mxCell id="Dsfpr2VGSD5I1YTHFGMH-10" value="có" style="edgeLabel;html=1;align=center;verticalAlign=middle;resizable=0;points=[];" vertex="1" connectable="0" parent="Dsfpr2VGSD5I1YTHFGMH-7">
          <mxGeometry x="-0.3111" y="1" relative="1" as="geometry">
            <mxPoint as="offset" />
          </mxGeometry>
        </mxCell>
        <mxCell id="Dsfpr2VGSD5I1YTHFGMH-9" value="" style="edgeStyle=orthogonalEdgeStyle;rounded=0;orthogonalLoop=1;jettySize=auto;html=1;" edge="1" parent="1" source="Dsfpr2VGSD5I1YTHFGMH-4" target="Dsfpr2VGSD5I1YTHFGMH-8">
          <mxGeometry relative="1" as="geometry" />
        </mxCell>
        <mxCell id="Dsfpr2VGSD5I1YTHFGMH-11" value="không" style="edgeLabel;html=1;align=center;verticalAlign=middle;resizable=0;points=[];" vertex="1" connectable="0" parent="Dsfpr2VGSD5I1YTHFGMH-9">
          <mxGeometry x="-0.2667" relative="1" as="geometry">
            <mxPoint as="offset" />
          </mxGeometry>
        </mxCell>
        <mxCell id="Dsfpr2VGSD5I1YTHFGMH-4" value="A&amp;gt;B" style="rhombus;whiteSpace=wrap;html=1;" vertex="1" parent="1">
          <mxGeometry x="340" y="320" width="80" height="80" as="geometry" />
        </mxCell>
        <mxCell id="Dsfpr2VGSD5I1YTHFGMH-13" value="" style="edgeStyle=orthogonalEdgeStyle;rounded=0;orthogonalLoop=1;jettySize=auto;html=1;" edge="1" parent="1" source="Dsfpr2VGSD5I1YTHFGMH-6" target="Dsfpr2VGSD5I1YTHFGMH-12">
          <mxGeometry relative="1" as="geometry" />
        </mxCell>
        <mxCell id="Dsfpr2VGSD5I1YTHFGMH-6" value="A&amp;gt;C" style="rhombus;whiteSpace=wrap;html=1;" vertex="1" parent="1">
          <mxGeometry x="170" y="410" width="80" height="80" as="geometry" />
        </mxCell>
        <mxCell id="Dsfpr2VGSD5I1YTHFGMH-15" value="" style="edgeStyle=orthogonalEdgeStyle;rounded=0;orthogonalLoop=1;jettySize=auto;html=1;" edge="1" parent="1" source="Dsfpr2VGSD5I1YTHFGMH-8" target="Dsfpr2VGSD5I1YTHFGMH-14">
          <mxGeometry relative="1" as="geometry" />
        </mxCell>
        <mxCell id="Dsfpr2VGSD5I1YTHFGMH-8" value="B&amp;gt;C" style="rhombus;whiteSpace=wrap;html=1;" vertex="1" parent="1">
          <mxGeometry x="510" y="410" width="80" height="80" as="geometry" />
        </mxCell>
        <mxCell id="Dsfpr2VGSD5I1YTHFGMH-18" style="edgeStyle=orthogonalEdgeStyle;rounded=0;orthogonalLoop=1;jettySize=auto;html=1;entryX=0;entryY=0.5;entryDx=0;entryDy=0;" edge="1" parent="1" source="Dsfpr2VGSD5I1YTHFGMH-12">
          <mxGeometry relative="1" as="geometry">
            <mxPoint x="320" y="730" as="targetPoint" />
            <Array as="points">
              <mxPoint x="210" y="730" />
            </Array>
          </mxGeometry>
        </mxCell>
        <mxCell id="Dsfpr2VGSD5I1YTHFGMH-12" value="A" style="shape=parallelogram;perimeter=parallelogramPerimeter;whiteSpace=wrap;html=1;fixedSize=1;" vertex="1" parent="1">
          <mxGeometry x="150" y="580" width="120" height="60" as="geometry" />
        </mxCell>
        <mxCell id="Dsfpr2VGSD5I1YTHFGMH-19" style="edgeStyle=orthogonalEdgeStyle;rounded=0;orthogonalLoop=1;jettySize=auto;html=1;entryX=1;entryY=0.5;entryDx=0;entryDy=0;" edge="1" parent="1" source="Dsfpr2VGSD5I1YTHFGMH-14">
          <mxGeometry relative="1" as="geometry">
            <mxPoint x="440" y="730" as="targetPoint" />
            <Array as="points">
              <mxPoint x="550" y="730" />
            </Array>
          </mxGeometry>
        </mxCell>
        <mxCell id="Dsfpr2VGSD5I1YTHFGMH-14" value="B" style="shape=parallelogram;perimeter=parallelogramPerimeter;whiteSpace=wrap;html=1;fixedSize=1;" vertex="1" parent="1">
          <mxGeometry x="490" y="580" width="120" height="60" as="geometry" />
        </mxCell>
        <mxCell id="Dsfpr2VGSD5I1YTHFGMH-22" style="edgeStyle=orthogonalEdgeStyle;rounded=0;orthogonalLoop=1;jettySize=auto;html=1;exitX=0.5;exitY=1;exitDx=0;exitDy=0;" edge="1" parent="1" source="Dsfpr2VGSD5I1YTHFGMH-20" target="Dsfpr2VGSD5I1YTHFGMH-21">
          <mxGeometry relative="1" as="geometry" />
        </mxCell>
        <mxCell id="Dsfpr2VGSD5I1YTHFGMH-20" value="Print largest" style="rounded=0;whiteSpace=wrap;html=1;" vertex="1" parent="1">
          <mxGeometry x="320" y="700" width="120" height="60" as="geometry" />
        </mxCell>
        <mxCell id="Dsfpr2VGSD5I1YTHFGMH-21" value="Kết thúc" style="ellipse;whiteSpace=wrap;html=1;" vertex="1" parent="1">
          <mxGeometry x="320" y="790" width="120" height="80" as="geometry" />
        </mxCell>
      </root>
    </mxGraphModel>
  </diagram>
  <diagram id="mgESQRkxNe2DynQJDMwN" name="Trang-2">
    <mxGraphModel dx="786" dy="459" grid="1" gridSize="10" guides="1" tooltips="1" connect="1" arrows="1" fold="1" page="1" pageScale="1" pageWidth="827" pageHeight="1169" math="0" shadow="0">
      <root>
        <mxCell id="0" />
        <mxCell id="1" parent="0" />
        <mxCell id="spWjZ4dc4CJ8ouzPr-CX-3" value="" style="edgeStyle=orthogonalEdgeStyle;rounded=0;orthogonalLoop=1;jettySize=auto;html=1;" edge="1" parent="1" source="spWjZ4dc4CJ8ouzPr-CX-1" target="spWjZ4dc4CJ8ouzPr-CX-2">
          <mxGeometry relative="1" as="geometry" />
        </mxCell>
        <mxCell id="spWjZ4dc4CJ8ouzPr-CX-1" value="Bắt đầu" style="ellipse;whiteSpace=wrap;html=1;" vertex="1" parent="1">
          <mxGeometry x="350" width="120" height="80" as="geometry" />
        </mxCell>
        <mxCell id="spWjZ4dc4CJ8ouzPr-CX-8" value="" style="edgeStyle=orthogonalEdgeStyle;rounded=0;orthogonalLoop=1;jettySize=auto;html=1;" edge="1" parent="1" source="spWjZ4dc4CJ8ouzPr-CX-2" target="spWjZ4dc4CJ8ouzPr-CX-7">
          <mxGeometry relative="1" as="geometry" />
        </mxCell>
        <mxCell id="spWjZ4dc4CJ8ouzPr-CX-2" value="Nhập N" style="rounded=1;whiteSpace=wrap;html=1;" vertex="1" parent="1">
          <mxGeometry x="350" y="140" width="120" height="60" as="geometry" />
        </mxCell>
        <mxCell id="spWjZ4dc4CJ8ouzPr-CX-10" value="" style="edgeStyle=orthogonalEdgeStyle;rounded=0;orthogonalLoop=1;jettySize=auto;html=1;" edge="1" parent="1" source="spWjZ4dc4CJ8ouzPr-CX-7" target="spWjZ4dc4CJ8ouzPr-CX-9">
          <mxGeometry relative="1" as="geometry" />
        </mxCell>
        <mxCell id="spWjZ4dc4CJ8ouzPr-CX-7" value="N % 2 ==0" style="rhombus;whiteSpace=wrap;html=1;rounded=1;" vertex="1" parent="1">
          <mxGeometry x="370" y="250" width="80" height="80" as="geometry" />
        </mxCell>
        <mxCell id="spWjZ4dc4CJ8ouzPr-CX-11" style="edgeStyle=orthogonalEdgeStyle;rounded=0;orthogonalLoop=1;jettySize=auto;html=1;" edge="1" parent="1">
          <mxGeometry relative="1" as="geometry">
            <mxPoint x="330" y="520" as="targetPoint" />
            <mxPoint x="380" y="450" as="sourcePoint" />
            <Array as="points">
              <mxPoint x="331" y="450" />
            </Array>
          </mxGeometry>
        </mxCell>
        <mxCell id="spWjZ4dc4CJ8ouzPr-CX-16" value="đúng" style="edgeLabel;html=1;align=center;verticalAlign=middle;resizable=0;points=[];" vertex="1" connectable="0" parent="spWjZ4dc4CJ8ouzPr-CX-11">
          <mxGeometry x="-0.1373" relative="1" as="geometry">
            <mxPoint as="offset" />
          </mxGeometry>
        </mxCell>
        <mxCell id="spWjZ4dc4CJ8ouzPr-CX-13" style="edgeStyle=orthogonalEdgeStyle;rounded=0;orthogonalLoop=1;jettySize=auto;html=1;exitX=1;exitY=0.5;exitDx=0;exitDy=0;" edge="1" parent="1">
          <mxGeometry relative="1" as="geometry">
            <mxPoint x="490" y="520" as="targetPoint" />
            <mxPoint x="420" y="450" as="sourcePoint" />
          </mxGeometry>
        </mxCell>
        <mxCell id="spWjZ4dc4CJ8ouzPr-CX-17" value="sai" style="edgeLabel;html=1;align=center;verticalAlign=middle;resizable=0;points=[];" vertex="1" connectable="0" parent="spWjZ4dc4CJ8ouzPr-CX-13">
          <mxGeometry x="-0.0285" y="-1" relative="1" as="geometry">
            <mxPoint as="offset" />
          </mxGeometry>
        </mxCell>
        <mxCell id="spWjZ4dc4CJ8ouzPr-CX-9" value="chẵn" style="rhombus;whiteSpace=wrap;html=1;rounded=1;" vertex="1" parent="1">
          <mxGeometry x="370" y="410" width="80" height="80" as="geometry" />
        </mxCell>
        <mxCell id="spWjZ4dc4CJ8ouzPr-CX-19" style="edgeStyle=orthogonalEdgeStyle;rounded=0;orthogonalLoop=1;jettySize=auto;html=1;entryX=0;entryY=0.5;entryDx=0;entryDy=0;" edge="1" parent="1" source="spWjZ4dc4CJ8ouzPr-CX-14" target="spWjZ4dc4CJ8ouzPr-CX-18">
          <mxGeometry relative="1" as="geometry" />
        </mxCell>
        <mxCell id="spWjZ4dc4CJ8ouzPr-CX-14" value="LoF" style="rounded=0;whiteSpace=wrap;html=1;" vertex="1" parent="1">
          <mxGeometry x="270" y="520" width="110" height="60" as="geometry" />
        </mxCell>
        <mxCell id="spWjZ4dc4CJ8ouzPr-CX-20" style="edgeStyle=orthogonalEdgeStyle;rounded=0;orthogonalLoop=1;jettySize=auto;html=1;entryX=1;entryY=0.5;entryDx=0;entryDy=0;" edge="1" parent="1" source="spWjZ4dc4CJ8ouzPr-CX-15" target="spWjZ4dc4CJ8ouzPr-CX-18">
          <mxGeometry relative="1" as="geometry" />
        </mxCell>
        <mxCell id="spWjZ4dc4CJ8ouzPr-CX-15" value="Lẻ" style="rounded=0;whiteSpace=wrap;html=1;" vertex="1" parent="1">
          <mxGeometry x="440" y="520" width="110" height="60" as="geometry" />
        </mxCell>
        <mxCell id="spWjZ4dc4CJ8ouzPr-CX-18" value="" style="ellipse;whiteSpace=wrap;html=1;" vertex="1" parent="1">
          <mxGeometry x="350" y="610" width="120" height="80" as="geometry" />
        </mxCell>
      </root>
    </mxGraphModel>
  </diagram>
</mxfile>
